# xmcd CD database file
#
# Track frame offsets:
#	183
#	18243
#	34235
#	64350
#	86058
#	114133
#	127133
#	148670
#
# Disc length: 2407 seconds
#
# Revision: 2
# Processed by: cddbd v1.4PL0 Copyright (c) Steve Scherf et al.
# Submitted via: CDex 1.40PlusFr
#
DISCID=6e096508
DTITLE=Buddy Guy - This is Buddy Guy!
DYEAR=1968
DGENRE=Blues
TTITLE0=I Got My Eyes On You
TTITLE1=The Things I Used To Do
TTITLE2=(You Give Me) Fever
TTITLE3=Knock On Wood
TTITLE4=I Had a Dream Last Night
TTITLE5=24 Hours Of The Day
TTITLE6=You Were Wrong
TTITLE7=I'm Not The Best
EXTD=YEAR: 1968 ID3G: 0
EXTT0=
EXTT1=
EXTT2=
EXTT3=
EXTT4=
EXTT5=
EXTT6=
EXTT7=
PLAYORDER=
